<svg xmlns="http://www.w3.org/2000/svg" viewBox="0 0 64 64" role="img" aria-label="Skills Workflow">
  <rect width="64" height="64" rx="12" fill="#0b83c9"/>
  <path d="M32 12c-8.1 0-14.6 6.3-14.6 14.2 0 4.7 2.2 8.2 5.4 11.4 1.5 1.5 2.4 3.5 2.4 5.6v1.3h13.6v-1.3c0-2.1.9-4.1 2.4-5.6 3.2-3.2 5.4-6.7 5.4-11.4C46.6 18.3 40.1 12 32 12Z" fill="#fff"/>
  <path d="M25.2 49.1h13.6v3.4H25.2v-3.4Zm2.2 5.7h9.2c-.9 2.1-2.6 3.2-4.6 3.2s-3.7-1.1-4.6-3.2Z" fill="#fff"/>
  <path d="M28.1 25.8 32 20l3.9 5.8H33v8.6h-2v-8.6h-2.9Z" fill="#0b83c9"/>
</svg>
